# xmcd
#
# Track frame offsets: 
#        150
#        14267
#        33842
#        58192
#        80160
#        95972
#        108997
#        132982
#        158650
#        177207
#        192395
#        210385
#
# Disc length: 3053 seconds
#
# Revision: 3
# Processed by: cddbd v1.5.2PL0 Copyright (c) Steve Scherf et al.
# Submitted via: ExactAudioCopy v1.0b4
#
DISCID=a10beb0c
DTITLE=Long John Hunter - Border Town Legend
DYEAR=1996
DGENRE=Blues
TTITLE0=T-Bone Intentions
TTITLE1=Ice Cold
TTITLE2=Ole Red
TTITLE3=Marfa Lights
TTITLE4=Nasty Ways
TTITLE5=Grits Ain't Groceries
TTITLE6=Arkansas
TTITLE7=Rooster and The Hen
TTITLE8=Lone Star Shootout
TTITLE9=Everybody Knows
TTITLE10=Road Hog
TTITLE11=John's Funk
EXTD=Real Texas Blues YEAR: 1996
EXTT0=
EXTT1=
EXTT2=
EXTT3=
EXTT4=
EXTT5=
EXTT6=
EXTT7=
EXTT8=
EXTT9=
EXTT10=
EXTT11=
PLAYORDER=
